<?xml version="1.0" encoding="UTF-8"?>
<svg id="Layer_1" data-name="Layer 1" xmlns="http://www.w3.org/2000/svg" viewBox="0 0 299.74 293.55">
  <defs>
    <style>
      .cls-1 {
        fill: #1caeae;
      }
    </style>
  </defs>
  <path class="cls-1" d="M243.4,0H56.48C39.41.25,24.31,9.74,13.73,22.69,2.76,36.11,1.29,45.72.77,62.64c-.34,11.13-.64,22.25-.68,33.39-.16,46.64-.25,94.27.96,140.73.75,28.85,27.45,54.06,55.64,55.58,16.84.91,33.9,1.25,50.84,1.21,44.92-.09,90.22-.32,135.09-1.11,29.45-.52,56.02-26.09,57.1-55.61V55.05C298.77,25.93,272.58.28,243.4,0ZM235.72,243.23h-67.85v-17.92h33.29v-67.21c0-2.77-6.31-14.36-8.43-17.17-1.56-2.07-8.25-9.93-10.8-8.52-.52.28-7.25,8.62-7.36,9.2-.5,2.6,1.27,11.96.63,17.42-1.33,11.26-7.15,23.16-14.35,31.74-5.04,6.01-13.86,16.4-21.17,8.33l-73.27-73.97c-2.06-4.73-.48-6.35,2.22-9.93,8.6-11.43,26.75-21.66,41-23.01,5.07-.48,13.26,1.26,16.7.75.83-.12,6.69-5.64,9.12-6.94,16.04-8.52,39.19-3.19,47.16,13.84,1.83,3.91,2.53,11.96,3.83,14.09.41.67,10.45,6.79,12.83,8.94,8.97,8.08,19.81,26.92,19.81,39.08v63.37h16.64v17.92Z"/>
  <path class="cls-1" d="M148.32,98.86c14.73-2.99,25.92,11.31,18.52,24.94-2.28,4.2-7.88,6.91-8.95,11.53-1.4,6.07,1.17,10.81,1.11,16.37-.06,5.23-7.18,29.8-13.37,28.72l-58.34-59.25c6.19-7.56,17.83-12.18,27.42-12.42,6.39-.16,12.18,2.81,18.64.79,4.82-1.5,8.08-9.26,14.95-10.66Z"/>
</svg>